Coordinates
version=1
nRows=9
nColumns=24
inDegrees=yes

Units are S.I. units (second, meters, Newtons, ...)
Angles are in degrees.

endheader
time	pelvis_tilt	pelvis_list	pelvis_rotation	pelvis_tx	pelvis_ty	pelvis_tz	hip_flexion_r	hip_adduction_r	hip_rotation_r	knee_angle_r	ankle_angle_r	subtalar_angle_r	mtp_angle_r	hip_flexion_l	hip_adduction_l	hip_rotation_l	knee_angle_l	ankle_angle_l	subtalar_angle_l	mtp_angle_l	lumbar_extension	lumbar_bending	lumbar_rotation
      0.47100000	     -3.84093208	      0.34949813	      5.70839363	     -0.73446866	      0.90445655	      0.31785156	     30.30984317	      0.07952767	     -7.40067354	    -16.31696785	     -0.60411698	     -0.31809350	      0.09246401	    -15.32692220	      1.27073886	      6.21106791	     -2.75445862	      8.25188204	     -7.36426590	      1.28291845	     -8.58682947	     -1.90742350	    -10.70422924
      0.47516667	     -3.89311110	      0.38918424	      5.79243498	     -0.72859406	      0.90318955	      0.31800373	     30.24741973	      0.12777028	     -7.10519198	    -16.00782117	     -0.54756152	     -0.54161851	      0.63599257	    -15.35482735	      1.24712390	      6.20552356	     -3.39863314	      8.42648591	     -7.10048299	      6.21138404	     -8.50154643	     -1.92924475	    -10.69501956
      0.47933333	     -3.91831436	      0.40648020	      5.87529612	     -0.72271034	      0.90201990	      0.31815898	     30.14837343	      0.20448847	     -6.81252472	    -15.77130921	     -0.62009623	     -0.84662358	      0.62888595	    -15.42472912	      1.20595071	      6.38151045	     -4.02852823	      8.60316231	     -7.07661296	      6.24584824	     -8.46129296	     -1.89817334	    -10.71660563
      0.48350000	     -3.97451774	      0.42715912	      5.94404846	     -0.71680986	      0.90083635	      0.31835531	     30.09549641	      0.28455529	     -6.50305292	    -15.65334499	     -0.71566928	     -1.23270795	      0.62330892	    -15.41923928	      1.17544031	      6.47721981	     -4.74522783	      8.77467896	     -6.95226095	      6.30804627	     -8.36525490	     -1.89830023	    -10.69965612
      0.48766667	     -4.01869245	      0.42328558	      5.99255624	     -0.71085771	      0.89971332	      0.31860636	     30.03489020	      0.40170297	     -6.21296027	    -15.62967381	     -0.86775458	     -1.67397312	      0.62460402	    -15.37641571	      1.11937628	      6.41620509	     -5.55888524	      8.94154535	     -6.66608786	      6.48302364	     -8.26407705	     -1.87338615	    -10.64974297
      0.49183333	     -4.10296284	      0.43251162	      6.05362007	     -0.70491585	      0.89858536	      0.31885285	     30.02977847	      0.49475325	     -5.93723709	    -15.71729993	     -1.02913654	     -2.10315074	      0.63273317	    -15.26971563	      1.08653734	      6.49510748	     -6.41893722	      9.06591118	     -6.54460232	      6.62758381	     -8.11365957	     -1.87990907	    -10.58349153
      0.49600000	     -4.18038359	      0.42501936	      6.08866925	     -0.69894941	      0.89750329	      0.31915810	     30.03629533	      0.61845184	     -5.66578602	    -15.91446151	     -1.23838113	     -2.59348126	      0.65421619	    -15.13185362	      1.04040433	      6.47769339	     -7.35139508	      9.17558364	     -6.33861150	      6.83859962	     -7.97813055	     -1.85354207	    -10.48920677
      0.50016667	     -4.26147128	      0.41444411	      6.11345584	     -0.69296509	      0.89646157	      0.31947644	     30.06329900	      0.74575310	     -5.41484054	    -16.21427932	     -1.45696112	     -3.07979909	      0.69057813	    -14.95774472	      0.99761233	      6.44690354	     -8.35216348	      9.25672122	     -6.13589901	      7.10157083	     -7.83311173	     -1.81919115	    -10.37374869
      0.50433333	     -4.34362872	      0.41192897	      6.13170216	     -0.68699439	      0.89546135	      0.31980436	     30.11917617	      0.86367528	     -5.17939103	    -16.63676560	     -1.64602028	     -3.54477495	      0.72053423	    -14.75660994	      0.97571888	      6.48645045	     -9.40574783	      9.34089286	     -6.04674256	      7.29684718	     -7.71022250	     -1.78748615	    -10.25416797
